# xmcd
#
# Track frame offsets:
#	150
#	16362
#	28197
#	39430
#	49215
#	63747
#	77562
#	91182
#	104860
#	117277
#	128992
#	144732
#	154410
#	169962
#	182310
#	194245
#
# Disc length: 2759 seconds
#
# Revision: 0
# Processed by: cddbd v1.5.2PL0 Copyright (c) Steve Scherf et al.
# Submitted via: VUPlayer 2.49
#
DISCID=ea0ac510
DTITLE=Various Artist - 16 Mooiste Cowboyliedjes
DYEAR=1991
DGENRE=Cowboy
TTITLE0=Mood en Fun - Mijn beste vriend
TTITLE1=Karina - Mijn ponnie
TTITLE2=Bobbejaan Schoepen - Bij 't kampvuur
TTITLE3=Siska - Cowboy Jimmy
TTITLE4=Johnny Hoes - Arme Cowboy
TTITLE5=Jodel Jerry - Ver in Arizona
TTITLE6=The Chico's - Hill Billy Billy
TTITLE7=De Alpenzusjes - Cowboy Whisky Dick
TTITLE8=Het sneeuwbal Trio - Buffalo Joe
TTITLE9=Karina - Het huis op de prairie
TTITLE10=De Tijdbrekers - Heel ver weg in Arizona
TTITLE11=Bobbejaan Schoepen - Geef mij maar de prairie
TTITLE12=Mood en Fun - Johnny Ringo
TTITLE13=Johan en Henk - Herrie in de prairie
TTITLE14=The Chico's - Ouwe taaie
TTITLE15=The Dutch Boys - Prikkebeen
EXTD=
EXTT0=
EXTT1=
EXTT2=
EXTT3=
EXTT4=
EXTT5=
EXTT6=
EXTT7=
EXTT8=
EXTT9=
EXTT10=
EXTT11=
EXTT12=
EXTT13=
EXTT14=
EXTT15=
PLAYORDER=
